<?xml version="1.0" encoding="utf-8"?>
<!-- Generator: Adobe Illustrator 24.2.3, SVG Export Plug-In . SVG Version: 6.00 Build 0)  -->
<svg version="1.1" id="レイヤー_1" xmlns="http://www.w3.org/2000/svg" xmlns:xlink="http://www.w3.org/1999/xlink" x="0px"
     y="0px" viewBox="0 0 700 149" style="enable-background:new 0 0 700 149;" xml:space="preserve">
    <style type="text/css">
        .st0{fill:#707070;}
    </style>
    <path class="st0" d="M247.8,92.1c0,5.8-1,9.7-3.1,11.8c-2.1,2.1-6,3.1-11.7,3.1h-40.7c-5.7,0-9.6-1-11.7-3.1s-3.1-6-3.1-11.8V58.9
                         c0-5.8,1-9.7,3.1-11.8c2.1-2.1,6-3.1,11.7-3.1H233c6,0,10,1.1,11.9,3.3c1.9,2.2,2.9,6.3,2.9,12.4l-10.5,2.1v-9.3H188v45.6h49.3V79.8
                         h-25.5v-8.1h36L247.8,92.1z"/>
    <path class="st0" d="M335.1,94.8c0,4.8-0.9,8-2.7,9.7c-1.8,1.7-5.1,2.5-10,2.5h-37.3c-4.9,0-8.2-0.8-10-2.4
                         c-1.8-1.6-2.7-4.9-2.7-9.8V67.6c0-4.8,0.9-8.1,2.7-9.8c1.8-1.7,5.1-2.6,10-2.6h37.3c4.9,0,8.2,0.9,10,2.6s2.7,5,2.7,9.8V94.8z
                         M325.4,99.2V63h-43.2v36.2L325.4,99.2z"/>
    <path class="st0" d="M410.4,107h-52.6V55.3h52.1V63h-42.3v13.3h25.5v7.7h-25.5v15.5h42.8V107z"/>
    <path class="st0" d="M488.5,107h-6.7l-38.7-34.3c-2.4-2-4.4-4.4-6.1-7.1c0.5,3.1,0.7,6.2,0.7,9.3V107h-9V55.3h7.4l37.9,33.8
                         c2.3,2.1,4.4,4.5,6.2,7.1c-0.6-3.2-0.9-6.4-0.9-9.6V55.3h9L488.5,107z"/>
    <path class="st0" d="M535.3,107h-9.8V55.4h9.8V107z"/>
    <path class="st0" d="M618.8,107h-6.7l-38.7-34.3c-2.4-2-4.4-4.4-6.1-7.1c0.5,3.1,0.7,6.2,0.7,9.3V107h-9V55.3h7.4l37.9,33.8
                         c2.3,2.1,4.4,4.5,6.2,7.1c-0.6-3.2-0.9-6.4-0.9-9.6V55.3h9L618.8,107z"/>
    <path class="st0" d="M697.1,94.8c0,4.8-0.9,8-2.7,9.7c-1.8,1.7-5.1,2.5-10,2.5H654c-4.9,0-8.2-0.8-9.9-2.4c-1.8-1.6-2.6-4.9-2.6-9.8
                         V67.6c0-4.8,0.9-8.1,2.6-9.8s5.1-2.6,9.9-2.6h30.4c6,0,9.8,1.5,11.3,4.4c0.9,1.7,1.3,6,1.3,12.8l-9.8,1.6V63h-36.1v36.2h36.1V86.9
                         l9.8,1.8L697.1,94.8z"/>
    <g>
        <path class="st0" d="M73.4,27.9c14.7-0.2,28.7,6.6,37.6,18.4c1.3,1.6,1.9,3.7,1.6,5.8c-0.2,2.1-1.3,3.9-3,5.1
                             c-1.3,1-2.9,1.6-4.5,1.6c-0.4,0-0.8,0-1.2-0.1c-2.1-0.2-3.9-1.3-5.2-3c-3-3.9-6.8-7-11.2-9.1c-4.3-2.1-9.1-3.2-13.9-3.1
                             c-4.2,0-8.3,0.9-12.1,2.6c-7.5,3.2-13.4,9.3-16.4,16.9c-3.2,7.8-3.1,16.6,0.3,24.3c3.2,7.5,9.3,13.4,16.9,16.5
                             c8.4,3.5,17.9,3.1,26-1.1c4.3-2.2,8-5.4,10.9-9.4c1.2-1.7,3-2.8,5.1-3.1c0.4-0.1,0.8-0.1,1.2-0.1c3.8,0.1,7.1,2.8,7.7,6.6
                             c0.3,2.1-0.2,4.2-1.4,5.8c-12.6,17.4-35.4,23.9-55.3,15.7c-11.3-4.6-20.4-13.5-25.3-24.7C26.2,82,26,68.8,30.8,57.1
                             c4.5-11.3,13.3-20.4,24.5-25.3C61,29.3,67.2,27.9,73.4,27.9z"/>
        <path class="st0" d="M124.9,65.6c2,0,3.9,0.7,5.3,2.1c2.9,2.6,3.1,7.1,0.4,9.9c-0.1,0.1-0.2,0.2-0.3,0.3c-1.4,1.4-3.2,2.2-5.2,2.2
                             L88,80.5c-2,0-3.9-0.7-5.3-2.1c-2.9-2.6-3.1-7.1-0.4-10c0.1-0.1,0.2-0.2,0.3-0.3c1.4-1.4,3.2-2.2,5.2-2.2L124.9,65.6z"/>
    </g>
    <path class="st0" d="M74.8,7c37.4,0,67.7,30.4,67.7,67.8c0,27.2-16.3,51.8-41.3,62.4c-34.5,14.6-74.2-1.6-88.8-36.1
                         S14,26.9,48.5,12.3C56.8,8.8,65.8,7,74.8,7 M74.8,1.5C34.4,1.5,1.6,34.3,1.6,74.7c0,40.4,32.8,73.2,73.2,73.2
                         c40.4,0,73.2-32.8,73.2-73.2c0,0,0,0,0,0C148,34.3,115.2,1.5,74.8,1.5C74.8,1.5,74.8,1.5,74.8,1.5L74.8,1.5z"/>
</svg>
